# xmcd
#
# Track frame offsets:
# 150
# 17646
# 36341
# 58204
# 79994
# 104086
# 124122
# 144442
# 163884
# 184384
# 206189
# 225380
# 247412
# 266142
# 281782
# 298656
#
# Disc length: 4096 seconds
#
# Revision: 0
# Processed by: cddbd v1.5.2PL0 Copyright (c) Steve Scherf et al.
# Submitted via: Audion 3.0.2 (http://www.panic.com/audion/)
#
DISCID=090ffe10
DTITLE=Abd-Al Malik - Le face a face des coeurs
DYEAR=2004
DGENRE=Hip-Hop
TTITLE0=Interview
TTITLE1=Ode a l amour
TTITLE2=Fleurs de lune feat Aissa et Souad Massi
TTITLE3=Lettre a mon pere feat Aissa
TTITLE4=Ce monde ma muse feat Fabien Coste et Aissa
TTITLE5=Noir et blanc feat Marco Prince
TTITLE6=Traces de lumiere feat Aissa et Fabien Coste
TTITLE7=Pourquoi avoir peur feat Aissa et Wallen
TTITLE8=Vivre a deux
TTITLE9=3 roses jaunes: la vie au conditionnel
TTITLE10=Sur la place des grands hommes feat Matteo Falkone
TTITLE11=Le langage du coeur feat Mila Tosi
TTITLE12=L envers et l endroit feat Sulle B Wax et Aissa
TTITLE13=Ou vont les reves feat Hamcho
TTITLE14=Parfum de vie
TTITLE15=Que Dieu benisse la France feat Ariel Wizeman
EXTD=
EXTT0=
EXTT1=
EXTT2=
EXTT3=
EXTT4=
EXTT5=
EXTT6=
EXTT7=
EXTT8=
EXTT9=
EXTT10=
EXTT11=
EXTT12=
EXTT13=
EXTT14=
EXTT15=
PLAYORDER=
